<svg xmlns="http://www.w3.org/2000/svg" version="1.1" xmlns:xlink="http://www.w3.org/1999/xlink" xmlns:svgjs="http://svgjs.dev/svgjs" width="1440" height="560" preserveAspectRatio="none" viewBox="0 0 1440 560"><g mask="url(&quot;#SvgjsMask1422&quot;)" fill="none"><rect width="1440" height="560" x="0" y="0" fill="url(&quot;#SvgjsLinearGradient1423&quot;)"></rect><use xlink:href="#SvgjsSymbol1430" x="0" y="0"></use><use xlink:href="#SvgjsSymbol1430" x="720" y="0"></use></g><defs><mask id="SvgjsMask1422"><rect width="1440" height="560" fill="#ffffff"></rect></mask><linearGradient x1="15.28%" y1="-39.29%" x2="84.72%" y2="139.29%" gradientUnits="userSpaceOnUse" id="SvgjsLinearGradient1423"><stop stop-color="rgba(14, 42, 71, 1)" offset="0"></stop><stop stop-color="rgba(14, 42, 71, 1)" offset="0.2"></stop><stop stop-color="rgba(15, 73, 148, 1)" offset="1"></stop></linearGradient><path d="M-1 0 a1 1 0 1 0 2 0 a1 1 0 1 0 -2 0z" id="SvgjsPath1426"></path><path d="M-3 0 a3 3 0 1 0 6 0 a3 3 0 1 0 -6 0z" id="SvgjsPath1424"></path><path d="M-5 0 a5 5 0 1 0 10 0 a5 5 0 1 0 -10 0z" id="SvgjsPath1428"></path><path d="M2 -2 L-2 2z" id="SvgjsPath1427"></path><path d="M6 -6 L-6 6z" id="SvgjsPath1425"></path><path d="M30 -30 L-30 30z" id="SvgjsPath1429"></path></defs><symbol id="SvgjsSymbol1430"><use xlink:href="#SvgjsPath1424" x="30" y="30" stroke="#1c538e"></use><use xlink:href="#SvgjsPath1425" x="30" y="90" stroke="rgba(20, 25, 89, 1)"></use><use xlink:href="#SvgjsPath1426" x="30" y="150" stroke="#1c538e"></use><use xlink:href="#SvgjsPath1424" x="30" y="210" stroke="rgba(20, 25, 89, 1)"></use><use xlink:href="#SvgjsPath1427" x="30" y="270" stroke="#1c538e"></use><use xlink:href="#SvgjsPath1425" x="30" y="330" stroke="#1c538e"></use><use xlink:href="#SvgjsPath1428" x="30" y="390" stroke="#1c538e"></use><use xlink:href="#SvgjsPath1427" x="30" y="450" stroke="rgba(20, 25, 89, 1)"></use><use xlink:href="#SvgjsPath1424" x="30" y="510" stroke="rgba(20, 25, 89, 1)"></use><use xlink:href="#SvgjsPath1427" x="30" y="570" stroke="rgba(20, 25, 89, 1)"></use><use xlink:href="#SvgjsPath1424" x="90" y="30" stroke="#1c538e"></use><use xlink:href="#SvgjsPath1425" x="90" y="90" stroke="rgba(20, 25, 89, 1)"></use><use xlink:href="#SvgjsPath1429" x="90" y="150" stroke="#1c538e" stroke-width="3"></use><use xlink:href="#SvgjsPath1425" x="90" y="210" stroke="rgba(20, 25, 89, 1)"></use><use xlink:href="#SvgjsPath1427" x="90" y="270" stroke="rgba(20, 25, 89, 1)"></use><use xlink:href="#SvgjsPath1426" x="90" y="330" stroke="rgba(20, 25, 89, 1)"></use><use xlink:href="#SvgjsPath1425" x="90" y="390" stroke="rgba(20, 25, 89, 1)"></use><use xlink:href="#SvgjsPath1424" x="90" y="450" stroke="rgba(20, 25, 89, 1)"></use><use xlink:href="#SvgjsPath1426" x="90" y="510" stroke="#1c538e"></use><use xlink:href="#SvgjsPath1425" x="90" y="570" stroke="#1c538e"></use><use xlink:href="#SvgjsPath1426" x="150" y="30" stroke="#1c538e"></use><use xlink:href="#SvgjsPath1426" x="150" y="90" stroke="rgba(20, 25, 89, 1)"></use><use xlink:href="#SvgjsPath1428" x="150" y="150" stroke="rgba(20, 25, 89, 1)"></use><use xlink:href="#SvgjsPath1425" x="150" y="210" stroke="rgba(20, 25, 89, 1)"></use><use xlink:href="#SvgjsPath1428" x="150" y="270" stroke="rgba(20, 25, 89, 1)"></use><use xlink:href="#SvgjsPath1424" x="150" y="330" stroke="#1c538e"></use><use xlink:href="#SvgjsPath1428" x="150" y="390" stroke="#1c538e"></use><use xlink:href="#SvgjsPath1425" x="150" y="450" stroke="rgba(20, 25, 89, 1)"></use><use xlink:href="#SvgjsPath1425" x="150" y="510" stroke="rgba(20, 25, 89, 1)"></use><use xlink:href="#SvgjsPath1424" x="150" y="570" stroke="rgba(20, 25, 89, 1)"></use><use xlink:href="#SvgjsPath1428" x="210" y="30" stroke="rgba(20, 25, 89, 1)"></use><use xlink:href="#SvgjsPath1425" x="210" y="90" stroke="rgba(20, 25, 89, 1)"></use><use xlink:href="#SvgjsPath1425" x="210" y="150" stroke="#1c538e"></use><use xlink:href="#SvgjsPath1428" x="210" y="210" stroke="#1c538e"></use><use xlink:href="#SvgjsPath1428" x="210" y="270" stroke="rgba(20, 25, 89, 1)"></use><use xlink:href="#SvgjsPath1426" x="210" y="330" stroke="#1c538e"></use><use xlink:href="#SvgjsPath1428" x="210" y="390" stroke="#1c538e"></use><use xlink:href="#SvgjsPath1428" x="210" y="450" stroke="rgba(20, 25, 89, 1)"></use><use xlink:href="#SvgjsPath1425" x="210" y="510" stroke="#1c538e"></use><use xlink:href="#SvgjsPath1426" x="210" y="570" stroke="#1c538e"></use><use xlink:href="#SvgjsPath1427" x="270" y="30" stroke="rgba(20, 25, 89, 1)"></use><use xlink:href="#SvgjsPath1425" x="270" y="90" stroke="#1c538e"></use><use xlink:href="#SvgjsPath1425" x="270" y="150" stroke="#1c538e"></use><use xlink:href="#SvgjsPath1425" x="270" y="210" stroke="rgba(20, 25, 89, 1)"></use><use xlink:href="#SvgjsPath1425" x="270" y="270" stroke="rgba(20, 25, 89, 1)"></use><use xlink:href="#SvgjsPath1426" x="270" y="330" stroke="#1c538e"></use><use xlink:href="#SvgjsPath1425" x="270" y="390" stroke="#1c538e"></use><use xlink:href="#SvgjsPath1425" x="270" y="450" stroke="rgba(20, 25, 89, 1)"></use><use xlink:href="#SvgjsPath1425" x="270" y="510" stroke="rgba(20, 25, 89, 1)"></use><use xlink:href="#SvgjsPath1424" x="270" y="570" stroke="rgba(20, 25, 89, 1)"></use><use xlink:href="#SvgjsPath1426" x="330" y="30" stroke="rgba(20, 25, 89, 1)"></use><use xlink:href="#SvgjsPath1425" x="330" y="90" stroke="rgba(20, 25, 89, 1)"></use><use xlink:href="#SvgjsPath1426" x="330" y="150" stroke="#1c538e"></use><use xlink:href="#SvgjsPath1427" x="330" y="210" stroke="#1c538e"></use><use xlink:href="#SvgjsPath1425" x="330" y="270" stroke="#1c538e"></use><use xlink:href="#SvgjsPath1429" x="330" y="330" stroke="rgba(20, 25, 89, 1)" stroke-width="3"></use><use xlink:href="#SvgjsPath1428" x="330" y="390" stroke="#1c538e"></use><use xlink:href="#SvgjsPath1428" x="330" y="450" stroke="#1c538e"></use><use xlink:href="#SvgjsPath1428" x="330" y="510" stroke="rgba(20, 25, 89, 1)"></use><use xlink:href="#SvgjsPath1428" x="330" y="570" stroke="#1c538e"></use><use xlink:href="#SvgjsPath1425" x="390" y="30" stroke="#1c538e"></use><use xlink:href="#SvgjsPath1428" x="390" y="90" stroke="rgba(20, 25, 89, 1)"></use><use xlink:href="#SvgjsPath1428" x="390" y="150" stroke="#1c538e"></use><use xlink:href="#SvgjsPath1428" x="390" y="210" stroke="#1c538e"></use><use xlink:href="#SvgjsPath1427" x="390" y="270" stroke="#1c538e"></use><use xlink:href="#SvgjsPath1425" x="390" y="330" stroke="rgba(20, 25, 89, 1)"></use><use xlink:href="#SvgjsPath1428" x="390" y="390" stroke="#1c538e"></use><use xlink:href="#SvgjsPath1428" x="390" y="450" stroke="#1c538e"></use><use xlink:href="#SvgjsPath1424" x="390" y="510" stroke="rgba(20, 25, 89, 1)"></use><use xlink:href="#SvgjsPath1426" x="390" y="570" stroke="rgba(20, 25, 89, 1)"></use><use xlink:href="#SvgjsPath1426" x="450" y="30" stroke="rgba(20, 25, 89, 1)"></use><use xlink:href="#SvgjsPath1425" x="450" y="90" stroke="#1c538e"></use><use xlink:href="#SvgjsPath1429" x="450" y="150" stroke="#1c538e" stroke-width="3"></use><use xlink:href="#SvgjsPath1424" x="450" y="210" stroke="rgba(20, 25, 89, 1)"></use><use xlink:href="#SvgjsPath1424" x="450" y="270" stroke="#1c538e"></use><use xlink:href="#SvgjsPath1425" x="450" y="330" stroke="#1c538e"></use><use xlink:href="#SvgjsPath1427" x="450" y="390" stroke="rgba(20, 25, 89, 1)"></use><use xlink:href="#SvgjsPath1425" x="450" y="450" stroke="#1c538e"></use><use xlink:href="#SvgjsPath1426" x="450" y="510" stroke="rgba(20, 25, 89, 1)"></use><use xlink:href="#SvgjsPath1428" x="450" y="570" stroke="rgba(20, 25, 89, 1)"></use><use xlink:href="#SvgjsPath1425" x="510" y="30" stroke="#1c538e"></use><use xlink:href="#SvgjsPath1428" x="510" y="90" stroke="rgba(20, 25, 89, 1)"></use><use xlink:href="#SvgjsPath1428" x="510" y="150" stroke="#1c538e"></use><use xlink:href="#SvgjsPath1428" x="510" y="210" stroke="rgba(20, 25, 89, 1)"></use><use xlink:href="#SvgjsPath1424" x="510" y="270" stroke="#1c538e"></use><use xlink:href="#SvgjsPath1425" x="510" y="330" stroke="#1c538e"></use><use xlink:href="#SvgjsPath1425" x="510" y="390" stroke="#1c538e"></use><use xlink:href="#SvgjsPath1427" x="510" y="450" stroke="#1c538e"></use><use xlink:href="#SvgjsPath1424" x="510" y="510" stroke="#1c538e"></use><use xlink:href="#SvgjsPath1428" x="510" y="570" stroke="rgba(20, 25, 89, 1)"></use><use xlink:href="#SvgjsPath1425" x="570" y="30" stroke="rgba(20, 25, 89, 1)"></use><use xlink:href="#SvgjsPath1425" x="570" y="90" stroke="#1c538e"></use><use xlink:href="#SvgjsPath1425" x="570" y="150" stroke="#1c538e"></use><use xlink:href="#SvgjsPath1427" x="570" y="210" stroke="#1c538e"></use><use xlink:href="#SvgjsPath1428" x="570" y="270" stroke="rgba(20, 25, 89, 1)"></use><use xlink:href="#SvgjsPath1428" x="570" y="330" stroke="rgba(20, 25, 89, 1)"></use><use xlink:href="#SvgjsPath1425" x="570" y="390" stroke="rgba(20, 25, 89, 1)"></use><use xlink:href="#SvgjsPath1428" x="570" y="450" stroke="rgba(20, 25, 89, 1)"></use><use xlink:href="#SvgjsPath1427" x="570" y="510" stroke="rgba(20, 25, 89, 1)"></use><use xlink:href="#SvgjsPath1424" x="570" y="570" stroke="#1c538e"></use><use xlink:href="#SvgjsPath1428" x="630" y="30" stroke="rgba(20, 25, 89, 1)"></use><use xlink:href="#SvgjsPath1425" x="630" y="90" stroke="rgba(20, 25, 89, 1)"></use><use xlink:href="#SvgjsPath1425" x="630" y="150" stroke="#1c538e"></use><use xlink:href="#SvgjsPath1428" x="630" y="210" stroke="rgba(20, 25, 89, 1)"></use><use xlink:href="#SvgjsPath1428" x="630" y="270" stroke="#1c538e"></use><use xlink:href="#SvgjsPath1425" x="630" y="330" stroke="#1c538e"></use><use xlink:href="#SvgjsPath1424" x="630" y="390" stroke="#1c538e"></use><use xlink:href="#SvgjsPath1428" x="630" y="450" stroke="#1c538e"></use><use xlink:href="#SvgjsPath1426" x="630" y="510" stroke="rgba(20, 25, 89, 1)"></use><use xlink:href="#SvgjsPath1428" x="630" y="570" stroke="rgba(20, 25, 89, 1)"></use><use xlink:href="#SvgjsPath1426" x="690" y="30" stroke="rgba(20, 25, 89, 1)"></use><use xlink:href="#SvgjsPath1428" x="690" y="90" stroke="rgba(20, 25, 89, 1)"></use><use xlink:href="#SvgjsPath1426" x="690" y="150" stroke="#1c538e"></use><use xlink:href="#SvgjsPath1424" x="690" y="210" stroke="#1c538e"></use><use xlink:href="#SvgjsPath1424" x="690" y="270" stroke="rgba(20, 25, 89, 1)"></use><use xlink:href="#SvgjsPath1425" x="690" y="330" stroke="#1c538e"></use><use xlink:href="#SvgjsPath1426" x="690" y="390" stroke="#1c538e"></use><use xlink:href="#SvgjsPath1426" x="690" y="450" stroke="rgba(20, 25, 89, 1)"></use><use xlink:href="#SvgjsPath1428" x="690" y="510" stroke="#1c538e"></use><use xlink:href="#SvgjsPath1425" x="690" y="570" stroke="#1c538e"></use></symbol></svg>